<svg width="32" height="32" viewBox="0 0 32 32" fill="none" xmlns="http://www.w3.org/2000/svg">
<path d="M16.0013 2.66669C8.63464 2.66669 2.66797 8.63335 2.66797 16C2.66637 18.7989 3.5461 21.5272 5.18238 23.798C6.81867 26.0687 9.12841 27.7666 11.784 28.6507C12.4506 28.7667 12.7013 28.3667 12.7013 28.016C12.7013 27.7 12.684 26.6507 12.684 25.5334C9.33464 26.1507 8.46797 24.7174 8.2013 23.9667C8.05064 23.5827 7.4013 22.4 6.83464 22.0827C6.36797 21.8334 5.7013 21.216 6.8173 21.2C7.86797 21.1827 8.6173 22.1667 8.86797 22.5667C10.068 24.5827 11.984 24.016 12.7506 23.6667C12.868 22.8 13.2173 22.2174 13.6013 21.884C10.6346 21.5507 7.53464 20.4 7.53464 15.3C7.53464 13.8494 8.05064 12.6507 8.9013 11.716C8.76797 11.3827 8.3013 10.016 9.03464 8.18269C9.03464 8.18269 10.1506 7.83335 12.7013 9.55069C13.7867 9.24943 14.9082 9.09781 16.0346 9.10002C17.168 9.10002 18.3013 9.24935 19.368 9.54935C21.9186 7.81602 23.0346 8.18402 23.0346 8.18402C23.768 10.0174 23.3013 11.384 23.168 11.7174C24.0173 12.6507 24.5346 13.8334 24.5346 15.3C24.5346 20.4174 21.4186 21.5507 18.4506 21.884C18.9346 22.3 19.352 23.1 19.352 24.3507C19.352 26.1334 19.3346 27.5667 19.3346 28.0174C19.3346 28.3667 19.5853 28.7827 20.252 28.6494C22.8984 27.7555 25.198 26.0544 26.827 23.7853C28.4561 21.5161 29.3326 18.7933 29.3333 16C29.3333 8.63335 23.3666 2.66669 16 2.66669H16.0013Z" fill="white"/>
</svg>
