<svg width="32" height="32" viewBox="0 0 32 32" fill="none" xmlns="http://www.w3.org/2000/svg">
<path d="M26.6667 5.33334H5.33341C4.62617 5.33334 3.94789 5.61429 3.4478 6.11439C2.9477 6.61449 2.66675 7.29277 2.66675 8.00001V24C2.66675 24.7073 2.9477 25.3855 3.4478 25.8856C3.94789 26.3857 4.62617 26.6667 5.33341 26.6667H26.6667C27.374 26.6667 28.0523 26.3857 28.5524 25.8856C29.0525 25.3855 29.3334 24.7073 29.3334 24V8.00001C29.3334 7.29277 29.0525 6.61449 28.5524 6.11439C28.0523 5.61429 27.374 5.33334 26.6667 5.33334ZM8.55208 20.9427L6.66675 19.0573L9.72408 16L6.66675 12.9427L8.55208 11.0573L13.4947 16L8.55208 20.9427ZM25.3334 21.3333H16.0001V18.6667H25.3334V21.3333Z" fill="white"/>
</svg>
